<?xml version="1.0" encoding="UTF-8" standalone="no"?>
<!-- Created with Inkscape (http://www.inkscape.org/) -->

<svg
   xmlns:dc="http://purl.org/dc/elements/1.1/"
   xmlns:cc="http://creativecommons.org/ns#"
   xmlns:rdf="http://www.w3.org/1999/02/22-rdf-syntax-ns#"
   xmlns:svg="http://www.w3.org/2000/svg"
   xmlns="http://www.w3.org/2000/svg"
   xmlns:xlink="http://www.w3.org/1999/xlink"
   xmlns:sodipodi="http://sodipodi.sourceforge.net/DTD/sodipodi-0.dtd"
   xmlns:inkscape="http://www.inkscape.org/namespaces/inkscape"
   version="1.1"
   id="svg4518"
   width="297mm"
   height="420mm"
   viewBox="0 0 1122.5197 1587.4016"
   sodipodi:docname="nevladinaOrg.svg"
   inkscape:version="0.92.3 (2405546, 2018-03-11)"
   inkscape:export-filename="C:\Users\Anis\Desktop\Stuff\nevladinaOrg.png"
   inkscape:export-xdpi="163.47791"
   inkscape:export-ydpi="163.47791">
  <metadata
     id="metadata4524">
    <rdf:RDF>
      <cc:Work
         rdf:about="">
        <dc:format>image/svg+xml</dc:format>
        <dc:type
           rdf:resource="http://purl.org/dc/dcmitype/StillImage" />
        <dc:title></dc:title>
      </cc:Work>
    </rdf:RDF>
  </metadata>
  <defs
     id="defs4522">
    <inkscape:path-effect
       only_selected="false"
       apply_with_weight="true"
       apply_no_weight="true"
       helper_size="0"
       steps="2"
       weight="33.333333"
       is_visible="true"
       id="path-effect1412"
       effect="bspline" />
    <linearGradient
       id="linearGradient1394-1"
       inkscape:collect="always">
      <stop
         id="stop1398"
         offset="0"
         style="stop-color:#31a6aa;stop-opacity:0.99033815" />
      <stop
         id="stop1400"
         offset="1"
         style="stop-color:#3dc797;stop-opacity:1" />
    </linearGradient>
    <inkscape:path-effect
       effect="bspline"
       id="path-effect4591"
       is_visible="true"
       weight="33.333333"
       steps="2"
       helper_size="0"
       apply_no_weight="true"
       apply_with_weight="true"
       only_selected="false" />
    <inkscape:path-effect
       effect="bspline"
       id="path-effect4572"
       is_visible="true"
       weight="33.333333"
       steps="2"
       helper_size="0"
       apply_no_weight="true"
       apply_with_weight="true"
       only_selected="false" />
    <inkscape:path-effect
       effect="bspline"
       id="path-effect4564"
       is_visible="true"
       weight="33.333333"
       steps="2"
       helper_size="0"
       apply_no_weight="true"
       apply_with_weight="true"
       only_selected="false" />
    <linearGradient
       inkscape:collect="always"
       xlink:href="#linearGradient1394-1"
       id="linearGradient1396"
       x1="-151.14545"
       y1="169.85153"
       x2="393.04694"
       y2="169.85153"
       gradientUnits="userSpaceOnUse"
       gradientTransform="translate(455.5711,646.88878)" />
  </defs>
  <sodipodi:namedview
     pagecolor="#ffffff"
     bordercolor="#666666"
     borderopacity="1"
     objecttolerance="10"
     gridtolerance="10"
     guidetolerance="10"
     inkscape:pageopacity="0"
     inkscape:pageshadow="2"
     inkscape:window-width="1920"
     inkscape:window-height="1027"
     id="namedview4520"
     showgrid="false"
     inkscape:zoom="0.76607143"
     inkscape:cx="408.12286"
     inkscape:cy="776.99669"
     inkscape:window-x="-8"
     inkscape:window-y="-8"
     inkscape:window-maximized="1"
     inkscape:current-layer="svg4518"
     units="mm" />
  <path
     style="fill:url(#linearGradient1396);fill-opacity:1;stroke:none;stroke-width:1px;stroke-linecap:butt;stroke-linejoin:miter;stroke-opacity:1"
     d="m 438.38047,508.36623 c -12.14459,-5.4298 -24.67994,-8.88642 -37.47533,-8.8746 -12.79539,0.0118 -25.84701,3.49225 -37.67992,9.86003 -11.83291,6.36778 -22.44074,15.61999 -30.35087,24.91881 -7.91012,9.29882 -13.11715,18.63853 -17.22239,29.92784 -4.10524,11.2893 -7.10536,24.52021 -8.87798,38.24767 -1.77262,13.72746 -2.31647,27.94446 -1.43038,43.42706 0.8861,15.48259 3.20222,32.22839 6.80531,48.626 3.60309,16.3976 8.49248,32.44346 13.54813,48.68002 5.05564,16.23656 10.27687,32.66166 15.82476,48.76145 5.54788,16.09978 11.42178,31.87229 18.65581,49.44068 7.23404,17.56839 15.82738,36.93058 25.0738,56.67441 9.24642,19.74384 19.14519,39.86772 31.4919,62.98381 12.3467,23.11609 27.14049,49.22279 41.22761,71.90359 14.08712,22.6808 27.4669,41.9346 38.05032,56.1581 10.58342,14.2235 18.46095,23.5233 24.71586,30.5397 6.25492,7.0164 10.93242,11.8027 15.09386,13.5701 4.16144,1.7675 7.80556,0.5166 10.27982,-3.6174 2.47426,-4.134 3.77962,-11.1503 3.6435,-23.1432 -0.13613,-11.9929 -1.71344,-28.9626 -3.37229,-47.0196 -1.65885,-18.057 -3.39942,-37.2033 -3.10024,-59.1492 0.29918,-21.94585 2.63807,-46.69454 7.75139,-68.75136 5.11332,-22.05681 13.00084,-41.4229 26.07822,-51.00891 13.07739,-9.58601 31.34414,-9.39325 46.1829,5.61706 14.83876,15.01031 26.25043,44.83802 30.96244,73.32015 4.71201,28.48213 2.72368,55.61666 1.06798,74.65486 -1.65571,19.0382 -2.97863,29.978 -4.21719,38.7764 -1.23856,8.7985 -2.39202,15.4501 -1.59203,20.5846 0.79998,5.1345 3.55334,8.7469 12.09199,3.8813 8.53866,-4.8655 22.81667,-18.1675 35.88455,-35.5074 13.06788,-17.3399 24.74214,-38.4623 37.57554,-62.50836 12.8334,-24.04609 26.68877,-50.76111 40.94832,-84.72751 14.25955,-33.9664 28.88036,-75.08719 39.98882,-111.27798 11.10846,-36.19078 18.65708,-67.29638 23.68313,-97.94201 5.02604,-30.64564 7.52158,-60.79794 8.23246,-83.36901 0.71088,-22.57107 -0.36283,-37.56227 -5.34238,-53.54025 -4.97955,-15.97797 -13.86482,-32.94388 -30.02215,-43.4677 -16.15733,-10.52383 -39.58665,-14.60581 -65.71947,-8.50813 -26.13282,6.09768 -54.96335,22.37388 -83.87526,31.3774 -28.91191,9.00353 -57.896,10.73101 -77.98712,9.13961 -20.09112,-1.5914 -31.28238,-6.5015 -30.66999,-4.37042 0.61238,2.13107 13.02925,11.30334 25.27531,19.20747 12.24606,7.90413 24.32068,14.53971 39.44134,19.2444 15.12067,4.7047 33.28694,7.4786 52.23479,8.65249 18.94785,1.17389 38.67705,0.74792 55.46441,0.0734 16.78736,-0.67452 30.6328,-1.59756 23.66961,2.0603 -6.96318,3.65786 -34.73369,11.89646 -63.14742,14.59446 -28.41373,2.69799 -57.46344,-0.14553 -82.09341,-5.55412 -24.62997,-5.40859 -44.83487,-13.38148 -61.87382,-23.22333 -17.03895,-9.84185 -30.91079,-21.55225 -41.92352,-31.71501 -11.01272,-10.16275 -19.1661,-18.77763 -29.11939,-26.78637 -9.95329,-8.00874 -21.70675,-15.41151 -33.85133,-20.8413 z"
     id="path4589"
     inkscape:connector-curvature="0"
     inkscape:path-effect="#path-effect4591"
     inkscape:original-d="m 438.77131,506.39308 c -12.53511,-3.4578 -25.07044,-6.9145 -37.60832,-10.3705 -13.05342,3.4802 -26.10505,6.9606 -39.16084,10.4429 -10.60989,9.2539 -21.21773,18.5061 -31.82978,27.7621 -5.2078,9.3419 -10.41485,18.6816 -15.62475,28.0257 -3.00015,13.2345 -6.00029,26.4654 -9.00235,39.7015 -0.54295,14.2187 -1.0868,28.4357 -1.6317,42.655 2.31724,16.7457 4.63337,33.4915 6.94873,50.24 4.89089,16.0465 9.78027,32.09236 14.66891,48.13996 5.22266,16.4255 10.44389,32.8506 15.66434,49.2774 5.87535,15.7727 11.74925,31.5452 17.62238,47.3194 8.59493,19.3625 17.18825,38.7247 25.78088,58.0885 9.90023,20.1238 19.79898,40.2477 29.69697,60.373 14.7954,26.1068 29.58919,52.21346 44.38229,78.32166 13.38112,19.2533 26.7609,38.5071 40.13986,57.7622 7.72447,9.2454 15.66533,18.4916 23.4965,27.7389 4.67859,4.7854 9.35609,9.5717 14.03263,14.359 3.64513,-1.252 7.28927,-2.5029 10.9324,-3.7529 1.30636,-7.0173 2.61173,-14.0336 3.91609,-21.0489 -1.57631,-16.9707 -3.15363,-33.9404 -4.73194,-50.9091 -1.73938,-19.1453 -3.47996,-38.2916 -5.22144,-57.4359 2.33966,-24.74726 4.67854,-49.49596 7.01632,-74.24246 7.8885,-19.367 15.77598,-38.7331 23.66248,-58.0981 18.26779,0.1917 36.53454,0.3845 54.80033,0.5783 11.41292,29.8274 22.82461,59.6551 34.23575,89.4851 -1.98741,27.1348 -3.97574,54.26936 -5.96512,81.40556 -1.32209,10.9402 -2.64501,21.88 -3.96926,32.8235 -1.15293,6.6534 -2.3064,13.305 -3.46137,19.9606 2.75525,3.6125 5.50864,7.2248 8.26147,10.8388 14.32327,-13.3443 28.6013,-26.6463 42.96669,-40.0296 11.77074,-21.2962 23.445,-42.4186 35.2007,-63.6891 13.91115,-26.82166 27.76655,-53.53666 41.64833,-80.30356 14.6375,-41.1659 29.25829,-82.2867 43.90951,-123.4948 7.56586,-31.1735 15.11448,-62.2791 22.67022,-93.41716 2.49654,-30.1533 4.99208,-60.3056 7.48662,-90.4569 -1.07263,-14.991 -2.14634,-29.9822 -3.221,-44.9717 -8.8843,-16.967 -17.76959,-33.9329 -26.65588,-50.8979 -23.42936,-4.0831 -46.85868,-8.1651 -70.29107,-12.2465 -28.83364,16.2775 -57.66417,32.5537 -86.50008,48.8334 -28.98776,1.7268 -57.97185,3.4543 -86.9616,5.183 -11.19192,-4.9118 -22.38318,-9.8219 -33.57696,-14.7317 12.41887,9.172 24.83572,18.3443 37.25208,27.5179 12.07558,6.6346 24.15018,13.2702 36.22378,19.9067 18.16728,2.7729 36.33355,5.5468 54.49883,8.3217 19.73023,-0.4269 39.45943,-0.8529 59.18766,-1.2779 13.84645,-0.924 27.69189,-1.847 41.53634,-2.7691 -27.77096,8.238 -55.54147,16.4766 -83.31587,24.7171 -29.05275,-2.8449 -58.10247,-5.6884 -87.15673,-8.5313 -20.20532,-7.9744 -40.41022,-15.9473 -60.61683,-23.9195 -13.87084,-11.7114 -27.74268,-23.4218 -41.61552,-35.1312 -8.1525,-8.616 -16.30586,-17.2309 -24.46029,-25.8448 -11.75243,-7.4038 -23.50593,-14.8065 -35.26039,-22.2083 z"
     sodipodi:nodetypes="cccccccccccccccccccccccccccccccccccccccccccccccccccc" />
  <path
     style="fill:#ffffff;fill-opacity:0.08212562;stroke:none;stroke-width:1px;stroke-linecap:butt;stroke-linejoin:miter;stroke-opacity:1"
     d="m 396.25469,499.65048 c -11.28345,0.7404 -22.62745,4.1035 -33.02929,9.7012 -11.8329,6.3677 -22.44144,15.6191 -30.35157,24.9179 -7.91012,9.2988 -13.11743,18.6385 -17.22265,29.9278 -4.10523,11.2892 -7.10434,24.5206 -8.87696,38.248 -1.77261,13.7274 -2.31578,27.9452 -1.42968,43.4277 0.88609,15.4826 3.2016,32.2274 6.80468,48.625 3.60309,16.3977 8.49123,32.44506 13.54688,48.68166 5.05565,16.2366 10.27828,32.6619 15.82617,48.7617 5.5479,16.0998 11.42223,31.8711 18.65625,49.4395 7.23403,17.5683 15.82583,36.9299 25.07227,56.6738 9.24643,19.7438 19.14548,39.8683 31.49218,62.9844 12.34671,23.116 27.14139,49.22336 41.22852,71.90426 14.08713,22.6808 27.46541,41.9347 38.04883,56.1582 10.58341,14.2234 18.46188,23.5226 24.7168,30.539 6.25491,7.0164 10.9323,11.8029 15.09375,13.5703 4.16144,1.7675 7.80504,0.5168 10.27929,-3.6172 2.47425,-4.134 3.78066,-11.1497 3.64453,-23.1425 -0.13612,-11.9929 -1.7142,-28.9626 -3.37304,-47.0196 -1.65885,-18.0569 -3.3988,-37.2045 -3.09961,-59.1504 0.29918,-21.94586 2.63862,-46.69506 7.75195,-68.75186 5.11333,-22.0568 13.00073,-41.4218 26.07813,-51.0078 13.07739,-9.5861 31.34288,-9.3931 46.18164,5.6172 14.83875,15.0103 26.25088,44.8382 30.96289,73.3203 4.712,28.4821 2.72406,55.61606 1.06836,74.65426 -1.65571,19.0382 -2.97824,29.9789 -4.2168,38.7773 -1.23856,8.7984 -2.39178,15.4495 -1.5918,20.584 0.79999,5.1345 3.55317,8.7464 12.0918,3.8809 8.53862,-4.8656 22.81494,-18.168 35.88281,-35.5079 13.06788,-17.3398 24.74276,-38.4617 37.57617,-62.50776 12.83341,-24.0461 26.68968,-50.7621 40.94922,-84.7285 7.48654,-17.833 15.05849,-37.6416 22.1836,-57.6699 A 419.67365,376.59674 0 0 1 396.25469,499.65048 Z"
     id="path1410"
     inkscape:connector-curvature="0" />
</svg>
